<?xml version="1.0" encoding="UTF-8"?>
<svg width="2491px" height="2429px" viewBox="0 0 2491 2429" version="1.1" xmlns="http://www.w3.org/2000/svg" xmlns:xlink="http://www.w3.org/1999/xlink">
    <title>Path</title>
    <g id="Page-1" stroke="none" stroke-width="1" fill="none" fill-rule="evenodd">
        <g id="github-icon-1" fill="#FFFFFF" fill-rule="nonzero">
            <path d="M1245.16602,0 C557.568359,0 0,557.470703 0,1245.16602 C0,1795.32227 356.777344,2262.06055 851.523438,2426.70898 C913.75,2438.23242 936.601562,2399.69727 936.601562,2366.80664 C936.601562,2337.11914 935.439453,2239.02344 934.912109,2134.98047 C588.496094,2210.30273 515.400391,1988.06641 515.400391,1988.06641 C458.759766,1844.14062 377.148438,1805.87891 377.148438,1805.87891 C264.179688,1728.59375 385.664063,1730.17578 385.664063,1730.17578 C510.703125,1738.96484 576.542969,1858.49609 576.542969,1858.49609 C687.597656,2048.85742 867.832031,1993.81836 938.886719,1962.01172 C950.058594,1881.52344 982.333984,1826.60156 1017.93945,1795.50781 C741.376953,1764.01367 450.634766,1657.24609 450.634766,1180.13672 C450.634766,1044.19922 499.277344,933.115234 578.935547,845.917969 C566.005859,814.550781 523.388672,687.910156 590.996094,516.396484 C590.996094,516.396484 695.556641,482.929687 933.505859,644.033203 C1032.82227,616.435547 1139.3457,602.607422 1245.16602,602.138672 C1350.98633,602.607422 1457.58789,616.435547 1557.09961,644.033203 C1794.76562,482.929687 1899.17969,516.396484 1899.17969,516.396484 C1966.95312,687.910156 1924.31641,814.550781 1911.38672,845.917969 C1991.2207,933.115234 2039.53125,1044.18945 2039.53125,1180.13672 C2039.53125,1658.37891 1748.24219,1763.69141 1470.97656,1794.51172 C1515.63477,1833.1543 1555.42969,1908.93555 1555.42969,2025.09766 C1555.42969,2191.69922 1553.98438,2325.79102 1553.98438,2366.80664 C1553.98438,2399.94141 1576.39648,2438.76953 1639.52148,2426.54297 C2133.99414,2261.70898 2490.32227,1795.13672 2490.32227,1245.16602 C2490.32227,557.470703 1932.83203,0 1245.16602,0" id="Path"></path>
        </g>
    </g>
</svg>